# xmcd CD database file generated by Grip 2.95
# 
# Track frame offsets:
#       150
#       19447
#       38779
#       60243
#       80635
#       96860
#       115374
#       135476
#       152431
#       172013
#       194505
# 
# Disc length: 2879 seconds
# 
# Revision: 3
# Processed by: cddbd v1.4b42PL1 Copyright (c) Steve Scherf et al.
# Submitted via: Grip 2.95
# 
DISCID=8e0b3d0b
DTITLE=高慧君 - 認真的女人最美麗
DYEAR=1900
DGENRE=
TTITLE0=認真的女人最美麗
TTITLE1=管我快不快樂
TTITLE2=你是不愛我的，對嗎？
TTITLE3=雨季過後
TTITLE4=Asking for the moon
TTITLE5=報應
TTITLE6=愛色
TTITLE7=You and I
TTITLE8=都是寂默惹的禍
TTITLE9=Please don't go
TTITLE10=你最珍貴
EXTD=
EXTT0=
EXTT1=
EXTT2=
EXTT3=
EXTT4=
EXTT5=
EXTT6=
EXTT7=
EXTT8=
EXTT9=
EXTT10=
PLAYORDER=
